# Blender v2.79 (sub 1) OBJ File: ''
# www.blender.org
mtllib dish.mtl
o Cube
v 0.072610 -0.023532 -0.155721
v 0.155721 -0.023532 -0.072610
v 0.155721 -0.023532 0.072610
v 0.072610 -0.023532 0.155721
v -0.072610 -0.023532 0.155721
v -0.155721 -0.023532 0.072610
v -0.155721 -0.023532 -0.072610
v -0.072610 -0.023532 -0.155721
v 0.213516 0.023532 -0.100329
v 0.100330 0.023532 -0.213515
v 0.100329 0.023532 0.213516
v 0.213515 0.023532 0.100330
v -0.213516 0.023532 0.100330
v -0.100330 0.023532 0.213516
v -0.100330 0.023532 -0.213516
v -0.213516 0.023532 -0.100330
v 0.106458 0.023532 -0.228311
v 0.228311 0.023532 -0.106458
v 0.228311 0.023532 0.106458
v 0.106458 0.023532 0.228311
v -0.106458 0.023532 0.228311
v -0.228311 0.023532 0.106458
v -0.228311 0.023532 -0.106458
v -0.106458 0.023532 -0.228311
v 0.055844 -0.018090 -0.118843
v 0.118843 -0.018090 -0.055843
v 0.118843 -0.018090 0.055844
v 0.055843 -0.018090 0.118843
v -0.055844 -0.018090 0.118843
v -0.118843 -0.018090 0.055844
v -0.118843 -0.018090 -0.055843
v -0.055844 -0.018090 -0.118843
vn 0.0000 -0.8391 -0.5440
vn 0.0000 -1.0000 0.0000
vn -0.5440 -0.8391 -0.0000
vn -0.4025 0.9154 -0.0000
vn -0.0000 -0.8391 0.5440
vn 0.3749 -0.8479 -0.3749
vn 0.3749 -0.8479 0.3749
vn -0.3749 -0.8479 0.3749
vn -0.3749 -0.8479 -0.3749
vn 0.5440 -0.8391 0.0000
vn 0.0000 1.0000 0.0000
vn -0.2755 0.9210 0.2755
vn -0.0000 0.9154 0.4025
vn -0.2755 0.9210 -0.2755
vn 0.0000 0.9154 -0.4025
vn 0.2755 0.9210 -0.2755
vn 0.4025 0.9154 0.0000
vn 0.2755 0.9210 0.2755
usemtl Material
s off
f 17//1 1//1 8//1 24//1
f 1//2 2//2 3//2 4//2 5//2 6//2 7//2 8//2
f 6//3 22//3 23//3 7//3
f 12//4 9//4 26//4 27//4
f 4//5 20//5 21//5 5//5
f 1//6 17//6 18//6 2//6
f 3//7 19//7 20//7 4//7
f 5//8 21//8 22//8 6//8
f 7//9 23//9 24//9 8//9
f 2//10 18//10 19//10 3//10
f 10//11 9//11 18//11 17//11
f 12//11 11//11 20//11 19//11
f 14//11 13//11 22//11 21//11
f 16//11 15//11 24//11 23//11
f 9//11 12//11 19//11 18//11
f 15//11 10//11 17//11 24//11
f 11//11 14//11 21//11 20//11
f 13//11 16//11 23//11 22//11
f 26//11 25//11 32//11 31//11 30//11 29//11 28//11 27//11
f 9//12 10//12 25//12 26//12
f 10//13 15//13 32//13 25//13
f 11//14 12//14 27//14 28//14
f 14//15 11//15 28//15 29//15
f 13//16 14//16 29//16 30//16
f 16//17 13//17 30//17 31//17
f 15//18 16//18 31//18 32//18
